<!--
  PTP icon (three synchronised clocks) from the IEEE 1588 website
  https://sagroups.ieee.org/1588/ptp-icon/
  Licensed under Creative Commons Attribution 4.0 International (CC BY 4.0)
  https://creativecommons.org/licenses/by/4.0/
  Cropped from the official PTP_Icon vector to the clock graphic (PTP
  wordmark removed); tools/icon-generate adds the "NQPTP" label.
-->
<svg xmlns="http://www.w3.org/2000/svg" xmlns:xlink="http://www.w3.org/1999/xlink" xmlns:inkscape="http://www.inkscape.org/namespaces/inkscape" version="1.1" width="145.29999" height="145.29999" viewBox="0 0 145.29999 145.29999">
<defs>
<clipPath id="clip_1">
<path transform="matrix(1,0,0,-1,-267.7,150.523)" d="M267.7 5.223001H413V150.523H267.7Z" clip-rule="evenodd"/>
</clipPath>
<clipPath id="clip_2">
<path transform="matrix(1,0,0,-1,-267.7,150.523)" d="M0 155.373H429.779V0H0Z"/>
</clipPath>
<clipPath id="clip_3">
<path transform="matrix(1,0,0,-1,-267.7,150.523)" d="M29.085 123.561V31.812H49.234V64.634H55.57C69.003 64.634 78.127 66.155 85.224 70.337 92.954 74.899 98.402 83.009 98.402 94.288 98.402 106.707 91.56 114.564 83.576 118.745 76.353 122.547 67.229 123.561 56.33 123.561ZM49.234 105.946H56.077C63.174 105.946 68.117 105.692 71.79 104.045 75.973 102.145 78.254 98.47 78.254 93.273 78.254 88.711 76.226 85.29 72.551 83.263 69.13 81.362 64.568 80.982 56.584 80.982H49.234Z"/>
</clipPath>
<clipPath id="clip_4">
<path transform="matrix(1,0,0,-1,-267.7,150.523)" d="M105.654 123.561V105.946H135.306V31.812H155.455V105.946H185.109V123.561Z"/>
</clipPath>
<clipPath id="clip_5">
<path transform="matrix(1,0,0,-1,-267.7,150.523)" d="M195.477 123.561V31.812H215.626V64.634H221.962C235.396 64.634 244.519 66.155 251.617 70.337 259.346 74.899 264.795 83.009 264.795 94.288 264.795 106.707 257.953 114.564 249.969 118.745 242.745 122.547 233.621 123.561 222.723 123.561ZM215.626 105.946H222.47C229.567 105.946 234.508 105.692 238.183 104.045 242.365 102.145 244.646 98.47 244.646 93.273 244.646 88.711 242.619 85.29 238.944 83.263 235.522 81.362 230.96 80.982 222.977 80.982H215.626Z"/>
</clipPath>
</defs>
<g clip-path="url(#clip_1)">
<g inkscape:groupmode="layer" inkscape:label="Layer 1">
<g clip-path="url(#clip_2)">
<path transform="matrix(1,0,0,-1,93.276,35.355798)" d="M0 0C11.221-11.222 11.221-29.415 0-40.637-11.222-51.858-29.415-51.858-40.637-40.637-51.858-29.415-51.858-11.222-40.637 0-29.415 11.221-11.222 11.221 0 0" fill="#231f20"/>
<path transform="matrix(1,0,0,-1,52.639284,75.99249)" d="M0 0C-11.221 11.222-11.221 29.415 0 40.637 11.222 51.858 29.415 51.858 40.637 40.637" fill="#808285"/>
<path transform="matrix(1,0,0,-1,72.9577,40.2278)" stroke-width="2.037" stroke-linecap="round" stroke-linejoin="round" fill="none" stroke="#ffffff" d="M0 0V-15.673L13.377-29.05"/>
<path transform="matrix(1,0,0,-1,93.276,35.355798)" stroke-width="1.533" stroke-linecap="butt" stroke-miterlimit="10" stroke-linejoin="miter" fill="none" stroke="#d1d3d4" d="M0 0C11.221-11.222 11.221-29.415 0-40.637-11.222-51.858-29.415-51.858-40.637-40.637-51.858-29.415-51.858-11.222-40.637 0-29.415 11.221-11.222 11.221 0 0Z"/>
<path transform="matrix(1,0,0,-1,40.149599,87.259098)" d="M0 0C7.2-7.2 7.2-18.874 0-26.074-7.2-33.273-18.873-33.273-26.073-26.074-33.273-18.874-33.273-7.2-26.073 0-18.873 7.2-7.2 7.2 0 0" fill="#231f20"/>
<path transform="matrix(1,0,0,-1,14.076294,113.332798)" d="M0 0C-7.2 7.2-7.2 18.874 0 26.074 7.2 33.274 18.874 33.274 26.073 26.074" fill="#808285"/>
<path transform="matrix(1,0,0,-1,27.112977,90.38509)" stroke-width="2.037" stroke-linecap="round" stroke-linejoin="round" fill="none" stroke="#ffffff" d="M0 0V-10.057L8.583-18.64"/>
<path transform="matrix(1,0,0,-1,40.149599,87.259098)" stroke-width="1.533" stroke-linecap="butt" stroke-miterlimit="10" stroke-linejoin="miter" fill="none" stroke="#d1d3d4" d="M0 0C7.2-7.2 7.2-18.874 0-26.074-7.2-33.273-18.873-33.273-26.073-26.074-33.273-18.874-33.273-7.2-26.073 0-18.873 7.2-7.2 7.2 0 0Z"/>
<path transform="matrix(1,0,0,-1,131.59729,87.259098)" d="M0 0C7.2-7.2 7.2-18.874 0-26.074-7.2-33.273-18.873-33.273-26.073-26.074-33.273-18.874-33.273-7.2-26.073 0-18.873 7.2-7.2 7.2 0 0" fill="#231f20"/>
<path transform="matrix(1,0,0,-1,105.52408,113.332798)" d="M0 0C-7.2 7.2-7.2 18.874 0 26.074 7.2 33.274 18.874 33.274 26.073 26.074" fill="#808285"/>
<path transform="matrix(1,0,0,-1,118.5607,90.38509)" stroke-width="2.037" stroke-linecap="round" stroke-linejoin="round" fill="none" stroke="#ffffff" d="M0 0V-10.057L8.583-18.64"/>
<path transform="matrix(1,0,0,-1,131.59729,87.259098)" stroke-width="1.533" stroke-linecap="butt" stroke-miterlimit="10" stroke-linejoin="miter" fill="none" stroke="#d1d3d4" d="M0 0C7.2-7.2 7.2-18.874 0-26.074-7.2-33.273-18.873-33.273-26.073-26.074-33.273-18.874-33.273-7.2-26.073 0-18.873 7.2-7.2 7.2 0 0Z"/>
<path transform="matrix(1,0,0,-1,29.880982,54.660493)" d="M0 0C0-1.263-1.023-2.286-2.286-2.286-3.549-2.286-4.573-1.263-4.573 0-4.573 1.263-3.549 2.287-2.286 2.287-1.023 2.287 0 1.263 0 0" fill="#030404"/>
<path transform="matrix(1,0,0,-1,29.880982,65.16239)" d="M0 0C0-1.263-1.023-2.286-2.286-2.286-3.549-2.286-4.573-1.263-4.573 0-4.573 1.263-3.549 2.287-2.286 2.287-1.023 2.287 0 1.263 0 0" fill="#030404"/>
<path transform="matrix(1,0,0,-1,29.880982,75.663898)" d="M0 0C0-1.263-1.023-2.287-2.286-2.287-3.549-2.287-4.573-1.263-4.573 0-4.573 1.263-3.549 2.286-2.286 2.286-1.023 2.286 0 1.263 0 0" fill="#030404"/>
<path transform="matrix(1,0,0,-1,51.83319,98.453899)" d="M0 0C1.263 0 2.287-1.024 2.287-2.287 2.287-3.549 1.263-4.573 0-4.573-1.263-4.573-2.286-3.549-2.286-2.287-2.286-1.024-1.263 0 0 0" fill="#030404"/>
<path transform="matrix(1,0,0,-1,62.335084,98.453899)" d="M0 0C1.263 0 2.287-1.024 2.287-2.287 2.287-3.549 1.263-4.573 0-4.573-1.263-4.573-2.286-3.549-2.286-2.287-2.286-1.024-1.263 0 0 0" fill="#030404"/>
<path transform="matrix(1,0,0,-1,72.8371,98.453899)" d="M0 0C1.263 0 2.286-1.024 2.286-2.287 2.286-3.549 1.263-4.573 0-4.573-1.263-4.573-2.287-3.549-2.287-2.287-2.287-1.024-1.263 0 0 0" fill="#030404"/>
<path transform="matrix(1,0,0,-1,83.3385,98.453899)" d="M0 0C1.263 0 2.287-1.024 2.287-2.287 2.287-3.549 1.263-4.573 0-4.573-1.263-4.573-2.286-3.549-2.286-2.287-2.286-1.024-1.263 0 0 0" fill="#030404"/>
<path transform="matrix(1,0,0,-1,93.840488,98.453899)" d="M0 0C1.263 0 2.287-1.024 2.287-2.287 2.287-3.549 1.263-4.573 0-4.573-1.263-4.573-2.286-3.549-2.286-2.287-2.286-1.024-1.263 0 0 0" fill="#030404"/>
<path transform="matrix(1,0,0,-1,120.84729,54.660493)" d="M0 0C0-1.263-1.024-2.286-2.287-2.286-3.549-2.286-4.573-1.263-4.573 0-4.573 1.263-3.549 2.287-2.287 2.287-1.024 2.287 0 1.263 0 0" fill="#030404"/>
<path transform="matrix(1,0,0,-1,120.84729,65.16239)" d="M0 0C0-1.263-1.024-2.286-2.287-2.286-3.549-2.286-4.573-1.263-4.573 0-4.573 1.263-3.549 2.287-2.287 2.287-1.024 2.287 0 1.263 0 0" fill="#030404"/>
<path transform="matrix(1,0,0,-1,120.84729,75.663898)" d="M0 0C0-1.263-1.024-2.287-2.287-2.287-3.549-2.287-4.573-1.263-4.573 0-4.573 1.263-3.549 2.286-2.287 2.286-1.024 2.286 0 1.263 0 0" fill="#030404"/>
<path transform="matrix(1,0,0,-1,118.5607,57.175096)" d="M0 0C-1.263 0-2.286 1.023-2.286 2.286-2.286 3.549-1.263 4.573 0 4.573 1.263 4.573 2.287 3.549 2.287 2.286 2.287 1.023 1.263 0 0 0" fill="#030404"/>
<path transform="matrix(1,0,0,-1,108.05917,57.175096)" d="M0 0C-1.263 0-2.287 1.023-2.287 2.286-2.287 3.549-1.263 4.573 0 4.573 1.263 4.573 2.286 3.549 2.286 2.286 2.286 1.023 1.263 0 0 0" fill="#030404"/>
<path transform="matrix(1,0,0,-1,38.096376,57.175096)" d="M0 0C-1.263 0-2.286 1.023-2.286 2.286-2.286 3.549-1.263 4.573 0 4.573 1.263 4.573 2.287 3.549 2.287 2.286 2.287 1.023 1.263 0 0 0" fill="#030404"/>
</g>
<g clip-path="url(#clip_3)">
</g>
<g clip-path="url(#clip_4)">
</g>
<g clip-path="url(#clip_5)">
</g>
</g>
</g>
</svg>
